<svg width="180" height="180" viewBox="0 0 180 180" fill="none" xmlns="http://www.w3.org/2000/svg"><style>.background { fill: #008080; } /* Teal background /.bear { fill: #FFFFFF; } / White bear /@media (prefers-color-scheme: dark) {.background { fill: #333333; } / Dark background for dark mode /.bear { fill: #E0E0E0; } / Off-white bear for dark mode */}</style><rect class="background" width="180" height="180" rx="40"/><path class="bear" d="M118.8,42.3c-8.4-8.4-22-8.4-30.4,0c-8.4,8.4-8.4,22,0,30.4c0.4,0.4,0.8,0.7,1.2,1.1c-1.6,0.3-3.2,0.5-4.8,0.5c-15.9,0-28.8,12.9-28.8,28.8c0,8.8,4,16.7,10.2,21.9c-0.2-1.3-0.3-2.6-0.3-3.9c0-15.9,12.9-28.8,28.8-28.8c1.3,0,2.6,0.1,3.9,0.3c5.2-6.2,13.1-10.2,21.9-10.2c1.3,0,2.6,0.1,3.9,0.3c-0.2-1.6-0.3-3.2-0.3-4.8C147.6,55.2,134.7,42.3,118.8,42.3z M61.2,42.3c8.4-8.4,22-8.4,30.4,0s8.4,22,0,30.4c-8.4-8.4-22-8.4-30.4,0S52.8,50.7,61.2,42.3z"/></svg>
